HIERARCHY
ROOT hip
{
  OFFSET 0 0 0
  CHANNELS 6 Xposition Yposition Zposition Zrotation Yrotation Xrotation
  JOINT abdomen
  {
    OFFSET 0 20.6881 -0.73152
    CHANNELS 3 Zrotation Xrotation Yrotation
    JOINT chest
    {
      OFFSET 0 11.7043 -0.48768
      CHANNELS 3 Zrotation Xrotation Yrotation
      JOINT neck
      {
        OFFSET 0 22.1894 -2.19456
        CHANNELS 3 Zrotation Xrotation Yrotation
        JOINT head
        {
          OFFSET -0.24384 7.07133 1.2192
          CHANNELS 3 Zrotation Xrotation Yrotation
          JOINT leftEye
          {
            OFFSET 4.14528 8.04674 8.04672
            CHANNELS 3 Zrotation Xrotation Yrotation
            End Site
            {
              OFFSET 1 0 0
            }
          }
          JOINT rightEye
          {
            OFFSET -3.6576 8.04674 8.04672
            CHANNELS 3 Zrotation Xrotation Yrotation
            End Site
            {
              OFFSET 1 0 0
            }
          }
        }
      }
      JOINT rCollar
      {
        OFFSET -2.68224 19.2634 -4.8768
        CHANNELS 3 Zrotation Xrotation Yrotation
        JOINT rShldr
        {
          OFFSET -8.77824 -1.95073 1.46304
          CHANNELS 3 Zrotation Xrotation Yrotation
          JOINT rForeArm
          {
            OFFSET -28.1742 -1.7115 0.48768
            CHANNELS 3 Zrotation Xrotation Yrotation
            JOINT rHand
            {
              OFFSET -22.5879 0.773209 7.07136
              CHANNELS 3 Zrotation Xrotation Yrotation
              JOINT rThumb1
              {
                OFFSET -1.2192 -0.487915 3.41376
                CHANNELS 3 Zrotation Xrotation Yrotation
                JOINT rThumb2
                {
                  OFFSET -3.37035 -0.52449 3.41376
                  CHANNELS 3 Zrotation Xrotation Yrotation
                  End Site
                  {
                    OFFSET -1.78271 -1.18214 1.43049
                  }
                }
              }
              JOINT rIndex1
              {
                OFFSET -7.75947 0.938293 5.60832
                CHANNELS 3 Zrotation Xrotation Yrotation
                JOINT rIndex2
                {
                  OFFSET -2.54057 -0.884171 1.56538
                  CHANNELS 3 Zrotation Xrotation Yrotation
                  End Site
                  {
                    OFFSET -1.62519 -0.234802 1.16502
                  }
                }
              }
              JOINT rMid1
              {
                OFFSET -8.24714 1.18213 3.41376
                CHANNELS 3 Zrotation Xrotation Yrotation
                JOINT rMid2
                {
                  OFFSET -3.10165 -0.590103 1.0647
                  CHANNELS 3 Zrotation Xrotation Yrotation
                  End Site
                  {
                    OFFSET -2.48547 -0.328903 0.83742
                  }
                }
              }
              JOINT rRing1
              {
                OFFSET -8.82822 0.546677 1.51678
                CHANNELS 3 Zrotation Xrotation Yrotation
                JOINT rRing2
                {
                  OFFSET -2.60934 -0.819778 -0.0198488
                  CHANNELS 3 Zrotation Xrotation Yrotation
                  End Site
                  {
                    OFFSET -2.33842 -0.294052 0.168128
                  }
                }
              }
              JOINT rPinky1
              {
                OFFSET -8.27202 -0.0477905 -0.4584
                CHANNELS 3 Zrotation Xrotation Yrotation
                JOINT rPinky2
                {
                  OFFSET -1.82734 -0.647385 -0.700984
                  CHANNELS 3 Zrotation Xrotation Yrotation
                  End Site
                  {
                    OFFSET -1.69225 -0.51767 -0.607171
                  }
                }
              }
            }
          }
        }
      }
      JOINT lCollar
      {
        OFFSET 2.68224 19.2634 -4.8768
        CHANNELS 3 Zrotation Xrotation Yrotation
        JOINT lShldr
        {
          OFFSET 8.77824 -1.95073 1.46304
          CHANNELS 3 Zrotation Xrotation Yrotation
          JOINT lForeArm
          {
            OFFSET 28.1742 -1.7115 0.48768
            CHANNELS 3 Zrotation Xrotation Yrotation
            JOINT lHand
            {
              OFFSET 22.5879 0.773209 7.07136
              CHANNELS 3 Zrotation Xrotation Yrotation
              JOINT lThumb1
              {
                OFFSET 1.2192 -0.487915 3.41376
                CHANNELS 3 Zrotation Xrotation Yrotation
                JOINT lThumb2
                {
                  OFFSET 3.37035 -0.52449 3.41376
                  CHANNELS 3 Zrotation Xrotation Yrotation
                  End Site
                  {
                    OFFSET 1.78271 -1.18214 1.43049
                  }
                }
              }
              JOINT lIndex1
              {
                OFFSET 7.75947 0.938293 5.60832
                CHANNELS 3 Zrotation Xrotation Yrotation
                JOINT lIndex2
                {
                  OFFSET 2.54057 -0.884171 1.56538
                  CHANNELS 3 Zrotation Xrotation Yrotation
                  End Site
                  {
                    OFFSET 1.62519 -0.234802 1.16502
                  }
                }
              }
              JOINT lMid1
              {
                OFFSET 8.24714 1.18213 3.41376
                CHANNELS 3 Zrotation Xrotation Yrotation
                JOINT lMid2
                {
                  OFFSET 3.10165 -0.590103 1.0647
                  CHANNELS 3 Zrotation Xrotation Yrotation
                  End Site
                  {
                    OFFSET 2.48547 -0.328903 0.83742
                  }
                }
              }
              JOINT lRing1
              {
                OFFSET 8.82822 0.546677 1.51678
                CHANNELS 3 Zrotation Xrotation Yrotation
                JOINT lRing2
                {
                  OFFSET 2.60934 -0.819778 -0.0198488
                  CHANNELS 3 Zrotation Xrotation Yrotation
                  End Site
                  {
                    OFFSET 2.33842 -0.294052 0.168128
                  }
                }
              }
              JOINT lPinky1
              {
                OFFSET 8.27202 -0.0477905 -0.4584
                CHANNELS 3 Zrotation Xrotation Yrotation
                JOINT lPinky2
                {
                  OFFSET 1.82734 -0.647385 -0.700984
                  CHANNELS 3 Zrotation Xrotation Yrotation
                  End Site
                  {
                    OFFSET 1.69225 -0.51767 -0.607171
                  }
                }
              }
            }
          }
        }
      }
    }
  }
  JOINT rButtock
  {
    OFFSET -8.77824 4.35084 1.2192
    CHANNELS 3 Zrotation Xrotation Yrotation
    JOINT rThigh
    {
      OFFSET 0 -1.70687 -2.19456
      CHANNELS 3 Zrotation Xrotation Yrotation
      JOINT rShin
      {
        OFFSET 0 -36.8199 0.73152
        CHANNELS 3 Zrotation Xrotation Yrotation
        JOINT rFoot
        {
          OFFSET 0.73152 -45.1104 -5.12064
          CHANNELS 3 Zrotation Xrotation Yrotation
          End Site
          {
            OFFSET -1.1221 -3.69964 12.103
          }
        }
      }
    }
  }
  JOINT lButtock
  {
    OFFSET 8.77824 4.35084 1.2192
    CHANNELS 3 Zrotation Xrotation Yrotation
    JOINT lThigh
    {
      OFFSET 0 -1.70687 -2.19456
      CHANNELS 3 Zrotation Xrotation Yrotation
      JOINT lShin
      {
        OFFSET 0 -36.8199 0.73152
        CHANNELS 3 Zrotation Xrotation Yrotation
        JOINT lFoot
        {
          OFFSET -0.73152 -45.1104 -5.12064
          CHANNELS 3 Zrotation Xrotation Yrotation
          End Site
          {
            OFFSET 1.1221 -3.69964 12.103
          }
        }
      }
    }
  }
}
MOTION
Frames:	4
Frame Time:	0.03333
1.2878590263426304 -1.4307168312370777 -2.200082503259182 -111.59014892578125 -78.4587631225586 -106.85199737548828 -152.8127899169922 -19.534215927124023 163.32647705078125 -134.10702514648438 63.66386413574219 -66.7858657836914 -142.21893310546875 -0.9273396730422974 -127.74725341796875 6.930521488189697 18.321979522705078 65.34957122802734 77.77593994140625 48.938167572021484 148.57562255859375 36.13275909423828 12.469555854797363 15.514115333557129 -121.4276351928711 -4.560020446777344 -49.963600158691406 69.51365661621094 -52.78032302856445 -60.08430480957031 79.37505340576172 -70.0519790649414 -36.51057434082031 -14.897071838378906 26.515884399414062 -74.48670959472656 67.74134063720703 -2.44830322265625 -31.982271194458008 31.968128204345703 -81.79737091064453 -27.986000061035156 46.026729583740234 37.9645881652832 134.3565673828125 -87.99219512939453 0.07635411620140076 55.186317443847656 33.34001159667969 21.561979293823242 84.63976287841797 -33.981201171875 -43.234291076660156 -43.39209747314453 125.740966796875 -76.39640045166016 -135.65869140625 110.89937591552734 3.8183846473693848 -85.53147888183594 -136.91787719726562 -32.152099609375 -43.068031311035156 66.69502258300781 -65.21440887451172 -146.82437133789062 -2.4030497074127197 -57.736228942871094 109.38821411132812 -33.39851760864258 34.65928649902344 80.35249328613281 -91.88400268554688 9.785356521606445 -117.15587615966797 -146.8814239501953 47.68592071533203 116.10823822021484 64.05901336669922 -24.915189743041992 102.59032440185547 70.65023040771484 -61.2500114440918 -108.20681762695312 167.1068572998047 1.4267438650131226 -95.86698913574219 158.98255920410156 78.83067321777344 122.44783782958984 -72.93765258789062 25.072004318237305 60.97594451904297 99.73126220703125 69.79551696777344 -51.293277740478516 -118.0623550415039 -69.84659576416016 -49.95374298095703 124.50066375732422 -88.07186889648438 63.212074279785156 2.1714861392974854 29.86436653137207 23.33291244506836 -102.01825714111328 -47.87727737426758 -145.7909698486328 16.07147789001465 -11.787049293518066 13.584030151367188 -132.26779174804688 60.085205078125 71.97832489013672 156.10238647460938 62.420536041259766 141.65049743652344 149.20126342773438 -50.386566162109375 -12.751188278198242 49.87952423095703 -7.040189743041992 -31.13535499572754 22.415056228637695 19.331974029541016 -106.97871398925781 27.250972747802734 72.25668334960938 136.8321990966797 -67.97406768798828 48.55611038208008 43.33134078979492
2.378370799124241 -1.7159776762127876 -4.61816843599081 -119.2314224243164 -80.46327209472656 -117.29508209228516 -164.30685424804688 -39.66682434082031 137.21273803710938 -141.79588317871094 62.50141906738281 -50.69551467895508 -139.84066772460938 3.456500291824341 -126.19993591308594 15.150419235229492 23.544498443603516 62.05021286010742 83.76639556884766 45.71499252319336 140.96954345703125 40.11358642578125 15.879026412963867 5.71627140045166 -111.60646057128906 9.442995071411133 -53.704994201660156 76.3781967163086 -44.127925872802734 -56.05484390258789 20.29880142211914 -70.05563354492188 -92.11769104003906 -11.618964195251465 29.766592025756836 -70.22583770751953 69.5186996459961 -11.38670539855957 -40.13188552856445 48.071022033691406 -73.72660064697266 -13.823792457580566 49.681087493896484 45.912532806396484 130.98085021972656 -87.93437957763672 5.150324821472168 52.509361267089844 40.50556945800781 23.28085708618164 94.76837921142578 -44.37372589111328 -25.113445281982422 -43.69609832763672 111.32026672363281 -75.2203598022461 -147.12139892578125 113.90489959716797 -7.435763835906982 -84.91533660888672 -151.0375213623047 -29.388099670410156 -55.52631759643555 65.35771942138672 -61.27167510986328 -135.8365478515625 -8.726000785827637 -56.03818893432617 109.5140151977539 -29.08698081970215 31.443450927734375 84.84410858154297 -93.20750427246094 14.629571914672852 -120.58706665039062 -151.93409729003906 50.689613342285156 110.9644775390625 68.88809967041016 -26.129568099975586 107.76560974121094 79.49412536621094 -55.32781219482422 -113.47102355957031 168.13487243652344 -0.6183735728263855 -88.94815063476562 136.54689025878906 70.505615234375 150.62799072265625 -78.40396118164062 30.99335289001465 68.29878234863281 114.70352935791016 58.55298614501953 -43.55840301513672 -116.67505645751953 -66.19672393798828 -49.993431091308594 -11.049379348754883 -85.35350036621094 -71.43794250488281 5.310425758361816 36.034908294677734 4.479741096496582 -99.33586120605469 -45.72105407714844 -136.4264373779297 20.145275115966797 0.11359547078609467 12.07369613647461 -120.25907897949219 51.00507354736328 57.99259948730469 155.5472412109375 62.465267181396484 149.5926513671875 -178.39077758789062 -32.060791015625 29.72612953186035 34.00308609008789 -24.539775848388672 -18.552778244018555 28.217803955078125 14.788838386535645 -92.57559204101562 46.898841857910156 68.1190185546875 116.2240219116211 -68.73898315429688 47.98870086669922 54.31188201904297
3.3873673528432846 -1.810452714562416 -7.179226540029049 -120.15055847167969 -80.84796142578125 -120.57451629638672 -175.75125122070312 -49.25245666503906 118.59516906738281 -145.94454956054688 58.05393600463867 -42.86017990112305 -139.86607360839844 6.821460247039795 -127.13003540039062 19.112899780273438 26.401987075805664 61.3677864074707 88.64556884765625 42.96039581298828 137.93812561035156 42.763980865478516 16.6551570892334 1.4861724376678467 -102.75789642333984 17.260892868041992 -53.506324768066406 79.76905822753906 -39.0137939453125 -54.490047454833984 -2.6179802417755127 -62.44356155395508 -111.43009185791016 -11.367257118225098 30.504966735839844 -67.52230072021484 70.13192749023438 -16.950477600097656 -46.48112106323242 64.03216552734375 -71.62803649902344 1.39285147190094 50.55240249633789 48.31777572631836 128.14662170410156 -87.65284729003906 6.215181350708008 49.651424407958984 42.365692138671875 25.822832107543945 100.2602767944336 -46.88950729370117 -7.167781352996826 -41.503482818603516 108.22063446044922 -72.82472229003906 -148.89173889160156 116.06678009033203 -13.116434097290039 -82.91698455810547 -153.43763732910156 -28.239459991455078 -61.53888702392578 64.93528747558594 -60.72621154785156 -128.9671630859375 -11.411251068115234 -53.9327278137207 110.9789810180664 -26.237991333007812 33.21592330932617 89.06715393066406 -92.40071868896484 18.392946243286133 -124.406494140625 -159.03305053710938 51.8715934753418 110.58354949951172 73.6523208618164 -25.782283782958984 111.76081848144531 88.18570709228516 -53.051116943359375 -118.35368347167969 164.95114135742188 -0.21483395993709564 -84.93802642822266 132.1371307373047 65.03350067138672 161.3863067626953 -81.67588806152344 34.536983489990234 70.163818359375 123.5401611328125 52.01325988769531 -31.444013595581055 -114.85347747802734 -62.14254379272461 -50.07733154296875 -31.439842224121094 -81.96673583984375 -94.63623046875 9.601706504821777 42.4085807800293 -6.798651695251465 -99.73828125 -44.7024040222168 -132.28396606445312 23.223148345947266 6.842072486877441 12.42138385772705 -114.37239074707031 45.706336975097656 50.28261947631836 154.19393920898438 62.205631256103516 157.07992553710938 -173.75167846679688 -20.472822189331055 36.91591262817383 19.240158081054688 -39.48005294799805 -9.756157875061035 26.961578369140625 10.882050514221191 -81.17652893066406 57.78543472290039 64.1312484741211 104.63328552246094 -71.72977447509766 51.6120491027832 66.83882141113281
4.361534584313631 -1.8019169569015503 -9.842724166810513 -118.72244262695312 -80.69639587402344 -120.597412109375 175.00144958496094 -55.61045837402344 105.105224609375 -149.04425048828125 52.798851013183594 -38.57807159423828 -140.20602416992188 9.29885482788086 -129.1104278564453 21.8280086517334 28.0330753326416 60.98115539550781 92.8359375 40.06949234008789 136.37489318847656 44.77214431762695 15.866286277770996 1.0377815961837769 -94.07161712646484 22.4446964263916 -50.68983459472656 81.53094482421875 -36.12265396118164 -53.85684585571289 -11.500612258911133 -56.242218017578125 -116.90293884277344 -12.268823623657227 29.528038024902344 -66.92390441894531 69.99174499511719 -19.62392234802246 -51.31321716308594 81.14787292480469 -69.98933410644531 18.089033126831055 46.808624267578125 48.6246223449707 128.5226593017578 -87.18476867675781 5.711997032165527 47.560447692871094 41.196937561035156 28.115989685058594 103.1673812866211 -47.074798583984375 8.169717788696289 -39.320091247558594 109.18990325927734 -70.80545043945312 -147.15631103515625 117.50447845458984 -14.97070598602295 -80.21002197265625 -150.6453399658203 -28.851215362548828 -63.56184768676758 67.40131378173828 -60.96755599975586 -122.7295150756836 -12.834346771240234 -52.06597137451172 112.62931823730469 -25.47296714782715 36.59416198730469 92.96302795410156 -90.67131042480469 20.757600784301758 -127.78328704833984 -165.3509521484375 51.246925354003906 111.65951538085938 77.55903625488281 -24.196849822998047 114.67593383789062 95.9994125366211 -54.35810470581055 -121.16368865966797 160.677978515625 1.7914882898330688 -82.78955841064453 130.7982635498047 61.427467346191406 168.48960876464844 -84.05953216552734 36.2984504699707 69.59024810791016 131.20199584960938 48.66439437866211 -20.351654052734375 -113.02853393554688 -59.08487319946289 -49.59022521972656 -42.472896575927734 -79.60209655761719 -109.64900970458984 13.446734428405762 48.64329147338867 -12.31900405883789 -102.14122009277344 -43.97580337524414 -131.68203735351562 25.4415225982666 11.060441017150879 13.784005165100098 -110.036376953125 42.24580383300781 43.359092712402344 153.60585021972656 61.756256103515625 162.71458435058594 -174.16127014160156 -15.366284370422363 36.05293273925781 5.9796342849731445 -50.42475128173828 -3.232133388519287 22.56083869934082 6.531887054443359 -72.2874755859375 62.90485382080078 59.65990447998047 98.9359130859375 -76.41324615478516 57.846282958984375 79.6664810180664
